ISO-10303-21;
HEADER;
/* Generated by software containing ST-Developer
 * from STEP Tools, Inc. (www.steptools.com) 
 */

FILE_DESCRIPTION(
/* description */ (''),
/* implementation_level */ '2;1');

FILE_NAME(
/* name */ '3 gripper v1.step',
/* time_stamp */ '2025-11-11T18:02:06+05:30',
/* author */ (''),
/* organization */ (''),
/* preprocessor_version */ 'ST-DEVELOPER v20.1',
/* originating_system */ 'Autodesk Translation Framework v14.10.0.0',
/* authorisation */ '');

FILE_SCHEMA (('AUTOMOTIVE_DESIGN { 1 0 10303 214 3 1 1 }'));
ENDSEC;

DATA;
#10=MECHANICAL_DESIGN_GEOMETRIC_PRESENTATION_REPRESENTATION('',(#13),#843);
#11=SHAPE_REPRESENTATION_RELATIONSHIP('SRR','None',#850,#12);
#12=ADVANCED_BREP_SHAPE_REPRESENTATION('',(#14),#842);
#13=STYLED_ITEM('',(#859),#14);
#14=MANIFOLD_SOLID_BREP('Body1',#527);
#15=FACE_OUTER_BOUND('',#41,.T.);
#16=FACE_OUTER_BOUND('',#42,.T.);
#17=FACE_OUTER_BOUND('',#43,.T.);
#18=FACE_OUTER_BOUND('',#44,.T.);
#19=FACE_OUTER_BOUND('',#45,.T.);
#20=FACE_OUTER_BOUND('',#46,.T.);
#21=FACE_OUTER_BOUND('',#47,.T.);
#22=FACE_OUTER_BOUND('',#48,.T.);
#23=FACE_OUTER_BOUND('',#49,.T.);
#24=FACE_OUTER_BOUND('',#50,.T.);
#25=FACE_OUTER_BOUND('',#51,.T.);
#26=FACE_OUTER_BOUND('',#52,.T.);
#27=FACE_OUTER_BOUND('',#53,.T.);
#28=FACE_OUTER_BOUND('',#54,.T.);
#29=FACE_OUTER_BOUND('',#55,.T.);
#30=FACE_OUTER_BOUND('',#56,.T.);
#31=FACE_OUTER_BOUND('',#57,.T.);
#32=FACE_OUTER_BOUND('',#58,.T.);
#33=FACE_OUTER_BOUND('',#59,.T.);
#34=FACE_OUTER_BOUND('',#60,.T.);
#35=FACE_OUTER_BOUND('',#61,.T.);
#36=FACE_OUTER_BOUND('',#62,.T.);
#37=FACE_OUTER_BOUND('',#63,.T.);
#38=FACE_OUTER_BOUND('',#64,.T.);
#39=FACE_OUTER_BOUND('',#65,.T.);
#40=FACE_OUTER_BOUND('',#66,.T.);
#41=EDGE_LOOP('',(#331,#332,#333,#334));
#42=EDGE_LOOP('',(#335,#336,#337,#338));
#43=EDGE_LOOP('',(#339,#340,#341,#342));
#44=EDGE_LOOP('',(#343,#344,#345,#346));
#45=EDGE_LOOP('',(#347,#348,#349,#350));
#46=EDGE_LOOP('',(#351,#352,#353,#354));
#47=EDGE_LOOP('',(#355,#356,#357,#358));
#48=EDGE_LOOP('',(#359,#360,#361,#362,#363,#364,#365,#366,#367,#368,#369,
#370,#371,#372,#373,#374,#375,#376,#377,#378));
#49=EDGE_LOOP('',(#379,#380,#381,#382));
#50=EDGE_LOOP('',(#383,#384,#385,#386));
#51=EDGE_LOOP('',(#387,#388,#389,#390));
#52=EDGE_LOOP('',(#391,#392,#393,#394));
#53=EDGE_LOOP('',(#395,#396,#397,#398));
#54=EDGE_LOOP('',(#399,#400,#401,#402));
#55=EDGE_LOOP('',(#403,#404,#405,#406));
#56=EDGE_LOOP('',(#407,#408,#409,#410,#411,#412,#413,#414,#415,#416,#417,
#418,#419,#420,#421,#422));
#57=EDGE_LOOP('',(#423,#424,#425,#426));
#58=EDGE_LOOP('',(#427,#428,#429,#430));
#59=EDGE_LOOP('',(#431,#432,#433,#434));
#60=EDGE_LOOP('',(#435,#436,#437,#438,#439,#440));
#61=EDGE_LOOP('',(#441,#442,#443,#444,#445,#446));
#62=EDGE_LOOP('',(#447,#448,#449,#450,#451,#452));
#63=EDGE_LOOP('',(#453,#454,#455,#456));
#64=EDGE_LOOP('',(#457,#458,#459,#460,#461,#462,#463,#464));
#65=EDGE_LOOP('',(#465,#466,#467,#468));
#66=EDGE_LOOP('',(#469,#470,#471,#472,#473,#474));
#67=LINE('',#697,#139);
#68=LINE('',#699,#140);
#69=LINE('',#701,#141);
#70=LINE('',#702,#142);
#71=LINE('',#705,#143);
#72=LINE('',#707,#144);
#73=LINE('',#708,#145);
#74=LINE('',#711,#146);
#75=LINE('',#713,#147);
#76=LINE('',#714,#148);
#77=LINE('',#716,#149);
#78=LINE('',#720,#150);
#79=LINE('',#722,#151);
#80=LINE('',#724,#152);
#81=LINE('',#725,#153);
#82=LINE('',#728,#154);
#83=LINE('',#730,#155);
#84=LINE('',#731,#156);
#85=LINE('',#734,#157);
#86=LINE('',#735,#158);
#87=LINE('',#737,#159);
#88=LINE('',#739,#160);
#89=LINE('',#741,#161);
#90=LINE('',#743,#162);
#91=LINE('',#745,#163);
#92=LINE('',#747,#164);
#93=LINE('',#749,#165);
#94=LINE('',#751,#166);
#95=LINE('',#753,#167);
#96=LINE('',#755,#168);
#97=LINE('',#757,#169);
#98=LINE('',#759,#170);
#99=LINE('',#761,#171);
#100=LINE('',#763,#172);
#101=LINE('',#764,#173);
#102=LINE('',#767,#174);
#103=LINE('',#769,#175);
#104=LINE('',#770,#176);
#105=LINE('',#773,#177);
#106=LINE('',#774,#178);
#107=LINE('',#777,#179);
#108=LINE('',#778,#180);
#109=LINE('',#780,#181);
#110=LINE('',#783,#182);
#111=LINE('',#785,#183);
#112=LINE('',#786,#184);
#113=LINE('',#789,#185);
#114=LINE('',#790,#186);
#115=LINE('',#793,#187);
#116=LINE('',#794,#188);
#117=LINE('',#797,#189);
#118=LINE('',#799,#190);
#119=LINE('',#800,#191);
#120=LINE('',#803,#192);
#121=LINE('',#805,#193);
#122=LINE('',#806,#194);
#123=LINE('',#809,#195);
#124=LINE('',#811,#196);
#125=LINE('',#812,#197);
#126=LINE('',#815,#198);
#127=LINE('',#817,#199);
#128=LINE('',#818,#200);
#129=LINE('',#820,#201);
#130=LINE('',#822,#202);
#131=LINE('',#825,#203);
#132=LINE('',#827,#204);
#133=LINE('',#828,#205);
#134=LINE('',#832,#206);
#135=LINE('',#833,#207);
#136=LINE('',#834,#208);
#137=LINE('',#836,#209);
#138=LINE('',#838,#210);
#139=VECTOR('',#571,10.);
#140=VECTOR('',#572,10.);
#141=VECTOR('',#573,10.);
#142=VECTOR('',#574,10.);
#143=VECTOR('',#577,10.);
#144=VECTOR('',#578,10.);
#145=VECTOR('',#579,10.);
#146=VECTOR('',#582,10.);
#147=VECTOR('',#583,10.);
#148=VECTOR('',#584,10.);
#149=VECTOR('',#587,10.);
#150=VECTOR('',#590,10.);
#151=VECTOR('',#591,10.);
#152=VECTOR('',#592,10.);
#153=VECTOR('',#593,10.);
#154=VECTOR('',#596,10.);
#155=VECTOR('',#597,10.);
#156=VECTOR('',#598,10.);
#157=VECTOR('',#601,10.);
#158=VECTOR('',#602,10.);
#159=VECTOR('',#605,10.);
#160=VECTOR('',#606,10.);
#161=VECTOR('',#607,10.);
#162=VECTOR('',#608,10.);
#163=VECTOR('',#609,10.);
#164=VECTOR('',#610,10.);
#165=VECTOR('',#611,10.);
#166=VECTOR('',#612,10.);
#167=VECTOR('',#613,10.);
#168=VECTOR('',#614,10.);
#169=VECTOR('',#615,10.);
#170=VECTOR('',#616,10.);
#171=VECTOR('',#617,10.);
#172=VECTOR('',#618,10.);
#173=VECTOR('',#619,10.);
#174=VECTOR('',#622,10.);
#175=VECTOR('',#623,10.);
#176=VECTOR('',#624,10.);
#177=VECTOR('',#627,10.);
#178=VECTOR('',#628,10.);
#179=VECTOR('',#631,10.);
#180=VECTOR('',#632,10.);
#181=VECTOR('',#635,10.);
#182=VECTOR('',#638,10.);
#183=VECTOR('',#639,10.);
#184=VECTOR('',#640,10.);
#185=VECTOR('',#643,10.);
#186=VECTOR('',#644,10.);
#187=VECTOR('',#647,10.);
#188=VECTOR('',#648,10.);
#189=VECTOR('',#651,10.);
#190=VECTOR('',#652,10.);
#191=VECTOR('',#653,10.);
#192=VECTOR('',#656,10.);
#193=VECTOR('',#657,10.);
#194=VECTOR('',#658,10.);
#195=VECTOR('',#661,10.);
#196=VECTOR('',#662,10.);
#197=VECTOR('',#663,10.);
#198=VECTOR('',#666,10.);
#199=VECTOR('',#667,10.);
#200=VECTOR('',#668,10.);
#201=VECTOR('',#671,10.);
#202=VECTOR('',#674,10.);
#203=VECTOR('',#677,10.);
#204=VECTOR('',#678,10.);
#205=VECTOR('',#679,10.);
#206=VECTOR('',#682,10.);
#207=VECTOR('',#683,10.);
#208=VECTOR('',#684,10.);
#209=VECTOR('',#687,10.);
#210=VECTOR('',#690,10.);
#211=VERTEX_POINT('',#695);
#212=VERTEX_POINT('',#696);
#213=VERTEX_POINT('',#698);
#214=VERTEX_POINT('',#700);
#215=VERTEX_POINT('',#704);
#216=VERTEX_POINT('',#706);
#217=VERTEX_POINT('',#710);
#218=VERTEX_POINT('',#712);
#219=VERTEX_POINT('',#718);
#220=VERTEX_POINT('',#719);
#221=VERTEX_POINT('',#721);
#222=VERTEX_POINT('',#723);
#223=VERTEX_POINT('',#727);
#224=VERTEX_POINT('',#729);
#225=VERTEX_POINT('',#733);
#226=VERTEX_POINT('',#738);
#227=VERTEX_POINT('',#740);
#228=VERTEX_POINT('',#742);
#229=VERTEX_POINT('',#744);
#230=VERTEX_POINT('',#746);
#231=VERTEX_POINT('',#748);
#232=VERTEX_POINT('',#750);
#233=VERTEX_POINT('',#752);
#234=VERTEX_POINT('',#754);
#235=VERTEX_POINT('',#756);
#236=VERTEX_POINT('',#758);
#237=VERTEX_POINT('',#760);
#238=VERTEX_POINT('',#762);
#239=VERTEX_POINT('',#766);
#240=VERTEX_POINT('',#768);
#241=VERTEX_POINT('',#772);
#242=VERTEX_POINT('',#776);
#243=VERTEX_POINT('',#782);
#244=VERTEX_POINT('',#784);
#245=VERTEX_POINT('',#788);
#246=VERTEX_POINT('',#792);
#247=VERTEX_POINT('',#796);
#248=VERTEX_POINT('',#798);
#249=VERTEX_POINT('',#802);
#250=VERTEX_POINT('',#804);
#251=VERTEX_POINT('',#808);
#252=VERTEX_POINT('',#810);
#253=VERTEX_POINT('',#814);
#254=VERTEX_POINT('',#816);
#255=VERTEX_POINT('',#824);
#256=VERTEX_POINT('',#826);
#257=VERTEX_POINT('',#830);
#258=VERTEX_POINT('',#831);
#259=EDGE_CURVE('',#211,#212,#67,.T.);
#260=EDGE_CURVE('',#211,#213,#68,.T.);
#261=EDGE_CURVE('',#214,#213,#69,.T.);
#262=EDGE_CURVE('',#212,#214,#70,.T.);
#263=EDGE_CURVE('',#212,#215,#71,.T.);
#264=EDGE_CURVE('',#216,#214,#72,.T.);
#265=EDGE_CURVE('',#215,#216,#73,.T.);
#266=EDGE_CURVE('',#217,#211,#74,.T.);
#267=EDGE_CURVE('',#217,#218,#75,.T.);
#268=EDGE_CURVE('',#213,#218,#76,.T.);
#269=EDGE_CURVE('',#218,#216,#77,.T.);
#270=EDGE_CURVE('',#219,#220,#78,.T.);
#271=EDGE_CURVE('',#219,#221,#79,.T.);
#272=EDGE_CURVE('',#222,#221,#80,.T.);
#273=EDGE_CURVE('',#220,#222,#81,.T.);
#274=EDGE_CURVE('',#223,#219,#82,.T.);
#275=EDGE_CURVE('',#223,#224,#83,.T.);
#276=EDGE_CURVE('',#221,#224,#84,.T.);
#277=EDGE_CURVE('',#224,#225,#85,.T.);
#278=EDGE_CURVE('',#225,#222,#86,.T.);
#279=EDGE_CURVE('',#223,#215,#87,.T.);
#280=EDGE_CURVE('',#226,#220,#88,.T.);
#281=EDGE_CURVE('',#226,#227,#89,.T.);
#282=EDGE_CURVE('',#228,#227,#90,.T.);
#283=EDGE_CURVE('',#229,#228,#91,.T.);
#284=EDGE_CURVE('',#230,#229,#92,.T.);
#285=EDGE_CURVE('',#230,#231,#93,.T.);
#286=EDGE_CURVE('',#231,#232,#94,.T.);
#287=EDGE_CURVE('',#232,#233,#95,.T.);
#288=EDGE_CURVE('',#233,#234,#96,.T.);
#289=EDGE_CURVE('',#235,#234,#97,.T.);
#290=EDGE_CURVE('',#235,#236,#98,.T.);
#291=EDGE_CURVE('',#236,#237,#99,.T.);
#292=EDGE_CURVE('',#237,#238,#100,.T.);
#293=EDGE_CURVE('',#217,#238,#101,.T.);
#294=EDGE_CURVE('',#236,#239,#102,.T.);
#295=EDGE_CURVE('',#240,#239,#103,.T.);
#296=EDGE_CURVE('',#237,#240,#104,.T.);
#297=EDGE_CURVE('',#241,#240,#105,.T.);
#298=EDGE_CURVE('',#238,#241,#106,.T.);
#299=EDGE_CURVE('',#235,#242,#107,.T.);
#300=EDGE_CURVE('',#239,#242,#108,.T.);
#301=EDGE_CURVE('',#242,#241,#109,.T.);
#302=EDGE_CURVE('',#232,#243,#110,.T.);
#303=EDGE_CURVE('',#244,#243,#111,.T.);
#304=EDGE_CURVE('',#233,#244,#112,.T.);
#305=EDGE_CURVE('',#245,#244,#113,.T.);
#306=EDGE_CURVE('',#234,#245,#114,.T.);
#307=EDGE_CURVE('',#243,#246,#115,.T.);
#308=EDGE_CURVE('',#246,#245,#116,.T.);
#309=EDGE_CURVE('',#247,#246,#117,.T.);
#310=EDGE_CURVE('',#247,#248,#118,.T.);
#311=EDGE_CURVE('',#248,#225,#119,.T.);
#312=EDGE_CURVE('',#249,#228,#120,.T.);
#313=EDGE_CURVE('',#250,#249,#121,.T.);
#314=EDGE_CURVE('',#250,#229,#122,.T.);
#315=EDGE_CURVE('',#227,#251,#123,.T.);
#316=EDGE_CURVE('',#252,#226,#124,.T.);
#317=EDGE_CURVE('',#252,#251,#125,.T.);
#318=EDGE_CURVE('',#253,#230,#126,.T.);
#319=EDGE_CURVE('',#253,#254,#127,.T.);
#320=EDGE_CURVE('',#254,#231,#128,.T.);
#321=EDGE_CURVE('',#254,#247,#129,.T.);
#322=EDGE_CURVE('',#248,#252,#130,.T.);
#323=EDGE_CURVE('',#251,#255,#131,.T.);
#324=EDGE_CURVE('',#255,#256,#132,.T.);
#325=EDGE_CURVE('',#256,#249,#133,.T.);
#326=EDGE_CURVE('',#257,#258,#134,.T.);
#327=EDGE_CURVE('',#258,#256,#135,.T.);
#328=EDGE_CURVE('',#257,#255,#136,.T.);
#329=EDGE_CURVE('',#253,#257,#137,.T.);
#330=EDGE_CURVE('',#258,#250,#138,.T.);
#331=ORIENTED_EDGE('',*,*,#259,.F.);
#332=ORIENTED_EDGE('',*,*,#260,.T.);
#333=ORIENTED_EDGE('',*,*,#261,.F.);
#334=ORIENTED_EDGE('',*,*,#262,.F.);
#335=ORIENTED_EDGE('',*,*,#263,.F.);
#336=ORIENTED_EDGE('',*,*,#262,.T.);
#337=ORIENTED_EDGE('',*,*,#264,.F.);
#338=ORIENTED_EDGE('',*,*,#265,.F.);
#339=ORIENTED_EDGE('',*,*,#266,.F.);
#340=ORIENTED_EDGE('',*,*,#267,.T.);
#341=ORIENTED_EDGE('',*,*,#268,.F.);
#342=ORIENTED_EDGE('',*,*,#260,.F.);
#343=ORIENTED_EDGE('',*,*,#268,.T.);
#344=ORIENTED_EDGE('',*,*,#269,.T.);
#345=ORIENTED_EDGE('',*,*,#264,.T.);
#346=ORIENTED_EDGE('',*,*,#261,.T.);
#347=ORIENTED_EDGE('',*,*,#270,.F.);
#348=ORIENTED_EDGE('',*,*,#271,.T.);
#349=ORIENTED_EDGE('',*,*,#272,.F.);
#350=ORIENTED_EDGE('',*,*,#273,.F.);
#351=ORIENTED_EDGE('',*,*,#274,.F.);
#352=ORIENTED_EDGE('',*,*,#275,.T.);
#353=ORIENTED_EDGE('',*,*,#276,.F.);
#354=ORIENTED_EDGE('',*,*,#271,.F.);
#355=ORIENTED_EDGE('',*,*,#276,.T.);
#356=ORIENTED_EDGE('',*,*,#277,.T.);
#357=ORIENTED_EDGE('',*,*,#278,.T.);
#358=ORIENTED_EDGE('',*,*,#272,.T.);
#359=ORIENTED_EDGE('',*,*,#263,.T.);
#360=ORIENTED_EDGE('',*,*,#279,.F.);
#361=ORIENTED_EDGE('',*,*,#274,.T.);
#362=ORIENTED_EDGE('',*,*,#270,.T.);
#363=ORIENTED_EDGE('',*,*,#280,.F.);
#364=ORIENTED_EDGE('',*,*,#281,.T.);
#365=ORIENTED_EDGE('',*,*,#282,.F.);
#366=ORIENTED_EDGE('',*,*,#283,.F.);
#367=ORIENTED_EDGE('',*,*,#284,.F.);
#368=ORIENTED_EDGE('',*,*,#285,.T.);
#369=ORIENTED_EDGE('',*,*,#286,.T.);
#370=ORIENTED_EDGE('',*,*,#287,.T.);
#371=ORIENTED_EDGE('',*,*,#288,.T.);
#372=ORIENTED_EDGE('',*,*,#289,.F.);
#373=ORIENTED_EDGE('',*,*,#290,.T.);
#374=ORIENTED_EDGE('',*,*,#291,.T.);
#375=ORIENTED_EDGE('',*,*,#292,.T.);
#376=ORIENTED_EDGE('',*,*,#293,.F.);
#377=ORIENTED_EDGE('',*,*,#266,.T.);
#378=ORIENTED_EDGE('',*,*,#259,.T.);
#379=ORIENTED_EDGE('',*,*,#291,.F.);
#380=ORIENTED_EDGE('',*,*,#294,.T.);
#381=ORIENTED_EDGE('',*,*,#295,.F.);
#382=ORIENTED_EDGE('',*,*,#296,.F.);
#383=ORIENTED_EDGE('',*,*,#292,.F.);
#384=ORIENTED_EDGE('',*,*,#296,.T.);
#385=ORIENTED_EDGE('',*,*,#297,.F.);
#386=ORIENTED_EDGE('',*,*,#298,.F.);
#387=ORIENTED_EDGE('',*,*,#290,.F.);
#388=ORIENTED_EDGE('',*,*,#299,.T.);
#389=ORIENTED_EDGE('',*,*,#300,.F.);
#390=ORIENTED_EDGE('',*,*,#294,.F.);
#391=ORIENTED_EDGE('',*,*,#300,.T.);
#392=ORIENTED_EDGE('',*,*,#301,.T.);
#393=ORIENTED_EDGE('',*,*,#297,.T.);
#394=ORIENTED_EDGE('',*,*,#295,.T.);
#395=ORIENTED_EDGE('',*,*,#287,.F.);
#396=ORIENTED_EDGE('',*,*,#302,.T.);
#397=ORIENTED_EDGE('',*,*,#303,.F.);
#398=ORIENTED_EDGE('',*,*,#304,.F.);
#399=ORIENTED_EDGE('',*,*,#288,.F.);
#400=ORIENTED_EDGE('',*,*,#304,.T.);
#401=ORIENTED_EDGE('',*,*,#305,.F.);
#402=ORIENTED_EDGE('',*,*,#306,.F.);
#403=ORIENTED_EDGE('',*,*,#307,.T.);
#404=ORIENTED_EDGE('',*,*,#308,.T.);
#405=ORIENTED_EDGE('',*,*,#305,.T.);
#406=ORIENTED_EDGE('',*,*,#303,.T.);
#407=ORIENTED_EDGE('',*,*,#279,.T.);
#408=ORIENTED_EDGE('',*,*,#265,.T.);
#409=ORIENTED_EDGE('',*,*,#269,.F.);
#410=ORIENTED_EDGE('',*,*,#267,.F.);
#411=ORIENTED_EDGE('',*,*,#293,.T.);
#412=ORIENTED_EDGE('',*,*,#298,.T.);
#413=ORIENTED_EDGE('',*,*,#301,.F.);
#414=ORIENTED_EDGE('',*,*,#299,.F.);
#415=ORIENTED_EDGE('',*,*,#289,.T.);
#416=ORIENTED_EDGE('',*,*,#306,.T.);
#417=ORIENTED_EDGE('',*,*,#308,.F.);
#418=ORIENTED_EDGE('',*,*,#309,.F.);
#419=ORIENTED_EDGE('',*,*,#310,.T.);
#420=ORIENTED_EDGE('',*,*,#311,.T.);
#421=ORIENTED_EDGE('',*,*,#277,.F.);
#422=ORIENTED_EDGE('',*,*,#275,.F.);
#423=ORIENTED_EDGE('',*,*,#283,.T.);
#424=ORIENTED_EDGE('',*,*,#312,.F.);
#425=ORIENTED_EDGE('',*,*,#313,.F.);
#426=ORIENTED_EDGE('',*,*,#314,.T.);
#427=ORIENTED_EDGE('',*,*,#315,.F.);
#428=ORIENTED_EDGE('',*,*,#281,.F.);
#429=ORIENTED_EDGE('',*,*,#316,.F.);
#430=ORIENTED_EDGE('',*,*,#317,.T.);
#431=ORIENTED_EDGE('',*,*,#318,.F.);
#432=ORIENTED_EDGE('',*,*,#319,.T.);
#433=ORIENTED_EDGE('',*,*,#320,.T.);
#434=ORIENTED_EDGE('',*,*,#285,.F.);
#435=ORIENTED_EDGE('',*,*,#321,.T.);
#436=ORIENTED_EDGE('',*,*,#309,.T.);
#437=ORIENTED_EDGE('',*,*,#307,.F.);
#438=ORIENTED_EDGE('',*,*,#302,.F.);
#439=ORIENTED_EDGE('',*,*,#286,.F.);
#440=ORIENTED_EDGE('',*,*,#320,.F.);
#441=ORIENTED_EDGE('',*,*,#322,.T.);
#442=ORIENTED_EDGE('',*,*,#316,.T.);
#443=ORIENTED_EDGE('',*,*,#280,.T.);
#444=ORIENTED_EDGE('',*,*,#273,.T.);
#445=ORIENTED_EDGE('',*,*,#278,.F.);
#446=ORIENTED_EDGE('',*,*,#311,.F.);
#447=ORIENTED_EDGE('',*,*,#282,.T.);
#448=ORIENTED_EDGE('',*,*,#315,.T.);
#449=ORIENTED_EDGE('',*,*,#323,.T.);
#450=ORIENTED_EDGE('',*,*,#324,.T.);
#451=ORIENTED_EDGE('',*,*,#325,.T.);
#452=ORIENTED_EDGE('',*,*,#312,.T.);
#453=ORIENTED_EDGE('',*,*,#326,.T.);
#454=ORIENTED_EDGE('',*,*,#327,.T.);
#455=ORIENTED_EDGE('',*,*,#324,.F.);
#456=ORIENTED_EDGE('',*,*,#328,.F.);
#457=ORIENTED_EDGE('',*,*,#329,.T.);
#458=ORIENTED_EDGE('',*,*,#328,.T.);
#459=ORIENTED_EDGE('',*,*,#323,.F.);
#460=ORIENTED_EDGE('',*,*,#317,.F.);
#461=ORIENTED_EDGE('',*,*,#322,.F.);
#462=ORIENTED_EDGE('',*,*,#310,.F.);
#463=ORIENTED_EDGE('',*,*,#321,.F.);
#464=ORIENTED_EDGE('',*,*,#319,.F.);
#465=ORIENTED_EDGE('',*,*,#330,.T.);
#466=ORIENTED_EDGE('',*,*,#313,.T.);
#467=ORIENTED_EDGE('',*,*,#325,.F.);
#468=ORIENTED_EDGE('',*,*,#327,.F.);
#469=ORIENTED_EDGE('',*,*,#284,.T.);
#470=ORIENTED_EDGE('',*,*,#314,.F.);
#471=ORIENTED_EDGE('',*,*,#330,.F.);
#472=ORIENTED_EDGE('',*,*,#326,.F.);
#473=ORIENTED_EDGE('',*,*,#329,.F.);
#474=ORIENTED_EDGE('',*,*,#318,.T.);
#475=PLANE('',#541);
#476=PLANE('',#542);
#477=PLANE('',#543);
#478=PLANE('',#544);
#479=PLANE('',#545);
#480=PLANE('',#546);
#481=PLANE('',#547);
#482=PLANE('',#548);
#483=PLANE('',#549);
#484=PLANE('',#550);
#485=PLANE('',#551);
#486=PLANE('',#552);
#487=PLANE('',#553);
#488=PLANE('',#554);
#489=PLANE('',#555);
#490=PLANE('',#556);
#491=PLANE('',#557);
#492=PLANE('',#558);
#493=PLANE('',#559);
#494=PLANE('',#560);
#495=PLANE('',#561);
#496=PLANE('',#562);
#497=PLANE('',#563);
#498=PLANE('',#564);
#499=PLANE('',#565);
#500=PLANE('',#566);
#501=ADVANCED_FACE('',(#15),#475,.T.);
#502=ADVANCED_FACE('',(#16),#476,.T.);
#503=ADVANCED_FACE('',(#17),#477,.T.);
#504=ADVANCED_FACE('',(#18),#478,.T.);
#505=ADVANCED_FACE('',(#19),#479,.T.);
#506=ADVANCED_FACE('',(#20),#480,.T.);
#507=ADVANCED_FACE('',(#21),#481,.T.);
#508=ADVANCED_FACE('',(#22),#482,.T.);
#509=ADVANCED_FACE('',(#23),#483,.T.);
#510=ADVANCED_FACE('',(#24),#484,.T.);
#511=ADVANCED_FACE('',(#25),#485,.T.);
#512=ADVANCED_FACE('',(#26),#486,.T.);
#513=ADVANCED_FACE('',(#27),#487,.T.);
#514=ADVANCED_FACE('',(#28),#488,.T.);
#515=ADVANCED_FACE('',(#29),#489,.T.);
#516=ADVANCED_FACE('',(#30),#490,.T.);
#517=ADVANCED_FACE('',(#31),#491,.T.);
#518=ADVANCED_FACE('',(#32),#492,.T.);
#519=ADVANCED_FACE('',(#33),#493,.T.);
#520=ADVANCED_FACE('',(#34),#494,.T.);
#521=ADVANCED_FACE('',(#35),#495,.T.);
#522=ADVANCED_FACE('',(#36),#496,.T.);
#523=ADVANCED_FACE('',(#37),#497,.T.);
#524=ADVANCED_FACE('',(#38),#498,.T.);
#525=ADVANCED_FACE('',(#39),#499,.T.);
#526=ADVANCED_FACE('',(#40),#500,.F.);
#527=CLOSED_SHELL('',(#501,#502,#503,#504,#505,#506,#507,#508,#509,#510,
#511,#512,#513,#514,#515,#516,#517,#518,#519,#520,#521,#522,#523,#524,#525,
#526));
#528=DERIVED_UNIT_ELEMENT(#530,1.);
#529=DERIVED_UNIT_ELEMENT(#845,-3.);
#530=(
MASS_UNIT()
NAMED_UNIT(*)
SI_UNIT(.KILO.,.GRAM.)
);
#531=DERIVED_UNIT((#528,#529));
#532=MEASURE_REPRESENTATION_ITEM('density measure',
POSITIVE_RATIO_MEASURE(7850.),#531);
#533=PROPERTY_DEFINITION_REPRESENTATION(#538,#535);
#534=PROPERTY_DEFINITION_REPRESENTATION(#539,#536);
#535=REPRESENTATION('material name',(#537),#842);
#536=REPRESENTATION('density',(#532),#842);
#537=DESCRIPTIVE_REPRESENTATION_ITEM('Steel','Steel');
#538=PROPERTY_DEFINITION('material property','material name',#852);
#539=PROPERTY_DEFINITION('material property','density of part',#852);
#540=AXIS2_PLACEMENT_3D('',#693,#567,#568);
#541=AXIS2_PLACEMENT_3D('',#694,#569,#570);
#542=AXIS2_PLACEMENT_3D('',#703,#575,#576);
#543=AXIS2_PLACEMENT_3D('',#709,#580,#581);
#544=AXIS2_PLACEMENT_3D('',#715,#585,#586);
#545=AXIS2_PLACEMENT_3D('',#717,#588,#589);
#546=AXIS2_PLACEMENT_3D('',#726,#594,#595);
#547=AXIS2_PLACEMENT_3D('',#732,#599,#600);
#548=AXIS2_PLACEMENT_3D('',#736,#603,#604);
#549=AXIS2_PLACEMENT_3D('',#765,#620,#621);
#550=AXIS2_PLACEMENT_3D('',#771,#625,#626);
#551=AXIS2_PLACEMENT_3D('',#775,#629,#630);
#552=AXIS2_PLACEMENT_3D('',#779,#633,#634);
#553=AXIS2_PLACEMENT_3D('',#781,#636,#637);
#554=AXIS2_PLACEMENT_3D('',#787,#641,#642);
#555=AXIS2_PLACEMENT_3D('',#791,#645,#646);
#556=AXIS2_PLACEMENT_3D('',#795,#649,#650);
#557=AXIS2_PLACEMENT_3D('',#801,#654,#655);
#558=AXIS2_PLACEMENT_3D('',#807,#659,#660);
#559=AXIS2_PLACEMENT_3D('',#813,#664,#665);
#560=AXIS2_PLACEMENT_3D('',#819,#669,#670);
#561=AXIS2_PLACEMENT_3D('',#821,#672,#673);
#562=AXIS2_PLACEMENT_3D('',#823,#675,#676);
#563=AXIS2_PLACEMENT_3D('',#829,#680,#681);
#564=AXIS2_PLACEMENT_3D('',#835,#685,#686);
#565=AXIS2_PLACEMENT_3D('',#837,#688,#689);
#566=AXIS2_PLACEMENT_3D('',#839,#691,#692);
#567=DIRECTION('axis',(0.,0.,1.));
#568=DIRECTION('refdir',(1.,0.,0.));
#569=DIRECTION('center_axis',(0.,1.,0.));
#570=DIRECTION('ref_axis',(0.,0.,-1.));
#571=DIRECTION('',(0.,0.,1.));
#572=DIRECTION('',(-1.,0.,0.));
#573=DIRECTION('',(0.,0.,-1.));
#574=DIRECTION('',(-1.,0.,0.));
#575=DIRECTION('center_axis',(0.,0.,1.));
#576=DIRECTION('ref_axis',(0.,1.,0.));
#577=DIRECTION('',(0.,-1.,0.));
#578=DIRECTION('',(0.,1.,0.));
#579=DIRECTION('',(-1.,0.,0.));
#580=DIRECTION('center_axis',(0.,0.,-1.));
#581=DIRECTION('ref_axis',(0.,-1.,0.));
#582=DIRECTION('',(0.,1.,0.));
#583=DIRECTION('',(-1.,0.,0.));
#584=DIRECTION('',(0.,-1.,0.));
#585=DIRECTION('center_axis',(-1.,0.,0.));
#586=DIRECTION('ref_axis',(0.,0.,1.));
#587=DIRECTION('',(0.,0.,1.));
#588=DIRECTION('center_axis',(0.,1.,0.));
#589=DIRECTION('ref_axis',(0.,0.,-1.));
#590=DIRECTION('',(0.,0.,1.));
#591=DIRECTION('',(-1.,0.,0.));
#592=DIRECTION('',(0.,0.,-1.));
#593=DIRECTION('',(-1.,0.,0.));
#594=DIRECTION('center_axis',(0.,0.,-1.));
#595=DIRECTION('ref_axis',(0.,-1.,0.));
#596=DIRECTION('',(0.,1.,0.));
#597=DIRECTION('',(-1.,0.,0.));
#598=DIRECTION('',(0.,-1.,0.));
#599=DIRECTION('center_axis',(-1.,0.,0.));
#600=DIRECTION('ref_axis',(0.,0.,1.));
#601=DIRECTION('',(0.,0.,1.));
#602=DIRECTION('',(0.,1.,0.));
#603=DIRECTION('center_axis',(-1.,0.,0.));
#604=DIRECTION('ref_axis',(0.,0.,1.));
#605=DIRECTION('',(0.,0.,-1.));
#606=DIRECTION('',(0.,-1.,0.));
#607=DIRECTION('',(0.,0.,-1.));
#608=DIRECTION('',(0.,1.,0.));
#609=DIRECTION('',(0.,0.,1.));
#610=DIRECTION('',(0.,-1.,0.));
#611=DIRECTION('',(0.,0.,-1.));
#612=DIRECTION('',(0.,-1.,0.));
#613=DIRECTION('',(0.,0.,1.));
#614=DIRECTION('',(0.,-1.,0.));
#615=DIRECTION('',(0.,0.,-1.));
#616=DIRECTION('',(0.,1.,0.));
#617=DIRECTION('',(0.,0.,1.));
#618=DIRECTION('',(0.,-1.,0.));
#619=DIRECTION('',(0.,0.,-1.));
#620=DIRECTION('center_axis',(0.,1.,0.));
#621=DIRECTION('ref_axis',(0.,0.,-1.));
#622=DIRECTION('',(-1.,0.,0.));
#623=DIRECTION('',(0.,0.,-1.));
#624=DIRECTION('',(-1.,0.,0.));
#625=DIRECTION('center_axis',(0.,0.,1.));
#626=DIRECTION('ref_axis',(0.,1.,0.));
#627=DIRECTION('',(0.,1.,0.));
#628=DIRECTION('',(-1.,0.,0.));
#629=DIRECTION('center_axis',(0.,0.,-1.));
#630=DIRECTION('ref_axis',(0.,-1.,0.));
#631=DIRECTION('',(-1.,0.,0.));
#632=DIRECTION('',(0.,-1.,0.));
#633=DIRECTION('center_axis',(-1.,0.,0.));
#634=DIRECTION('ref_axis',(0.,0.,1.));
#635=DIRECTION('',(0.,0.,1.));
#636=DIRECTION('center_axis',(0.,1.,0.));
#637=DIRECTION('ref_axis',(0.,0.,-1.));
#638=DIRECTION('',(-1.,0.,0.));
#639=DIRECTION('',(0.,0.,-1.));
#640=DIRECTION('',(-1.,0.,0.));
#641=DIRECTION('center_axis',(0.,0.,1.));
#642=DIRECTION('ref_axis',(0.,1.,0.));
#643=DIRECTION('',(0.,1.,0.));
#644=DIRECTION('',(-1.,0.,0.));
#645=DIRECTION('center_axis',(-1.,0.,0.));
#646=DIRECTION('ref_axis',(0.,0.,1.));
#647=DIRECTION('',(0.,-1.,0.));
#648=DIRECTION('',(0.,0.,1.));
#649=DIRECTION('center_axis',(0.,-1.,0.));
#650=DIRECTION('ref_axis',(0.,0.,-1.));
#651=DIRECTION('',(-1.,0.,0.));
#652=DIRECTION('',(0.,0.,1.));
#653=DIRECTION('',(-1.,0.,0.));
#654=DIRECTION('center_axis',(0.,-1.,0.));
#655=DIRECTION('ref_axis',(1.,0.,0.));
#656=DIRECTION('',(1.,0.,0.));
#657=DIRECTION('',(0.,0.,1.));
#658=DIRECTION('',(1.,0.,0.));
#659=DIRECTION('center_axis',(0.,1.,0.));
#660=DIRECTION('ref_axis',(0.,0.,-1.));
#661=DIRECTION('',(1.,0.,0.));
#662=DIRECTION('',(-1.,0.,0.));
#663=DIRECTION('',(0.,0.,-1.));
#664=DIRECTION('center_axis',(0.,1.,0.));
#665=DIRECTION('ref_axis',(0.,0.,-1.));
#666=DIRECTION('',(-1.,0.,0.));
#667=DIRECTION('',(0.,0.,-1.));
#668=DIRECTION('',(-1.,0.,0.));
#669=DIRECTION('center_axis',(0.,0.,-1.));
#670=DIRECTION('ref_axis',(0.,-1.,0.));
#671=DIRECTION('',(0.,-1.,0.));
#672=DIRECTION('center_axis',(0.,0.,1.));
#673=DIRECTION('ref_axis',(0.,1.,0.));
#674=DIRECTION('',(0.,1.,0.));
#675=DIRECTION('center_axis',(0.,0.,1.));
#676=DIRECTION('ref_axis',(1.,0.,0.));
#677=DIRECTION('',(0.,1.,0.));
#678=DIRECTION('',(-1.,0.,0.));
#679=DIRECTION('',(0.,-1.,0.));
#680=DIRECTION('center_axis',(0.,1.,0.));
#681=DIRECTION('ref_axis',(-1.,0.,0.));
#682=DIRECTION('',(-1.,0.,0.));
#683=DIRECTION('',(0.,0.,1.));
#684=DIRECTION('',(0.,0.,1.));
#685=DIRECTION('center_axis',(1.,0.,0.));
#686=DIRECTION('ref_axis',(0.,1.,0.));
#687=DIRECTION('',(0.,1.,0.));
#688=DIRECTION('center_axis',(-1.,0.,0.));
#689=DIRECTION('ref_axis',(0.,-1.,0.));
#690=DIRECTION('',(0.,-1.,0.));
#691=DIRECTION('center_axis',(0.,0.,1.));
#692=DIRECTION('ref_axis',(1.,0.,0.));
#693=CARTESIAN_POINT('',(0.,0.,0.));
#694=CARTESIAN_POINT('Origin',(10.,-5.,20.));
#695=CARTESIAN_POINT('',(10.,-5.,15.));
#696=CARTESIAN_POINT('',(10.,-5.,20.));
#697=CARTESIAN_POINT('',(10.,-5.,15.));
#698=CARTESIAN_POINT('',(-35.,-5.,15.));
#699=CARTESIAN_POINT('',(10.,-5.,15.));
#700=CARTESIAN_POINT('',(-35.,-5.,20.));
#701=CARTESIAN_POINT('',(-35.,-5.,15.));
#702=CARTESIAN_POINT('',(10.,-5.,20.));
#703=CARTESIAN_POINT('Origin',(10.,-10.,20.));
#704=CARTESIAN_POINT('',(10.,-10.,20.));
#705=CARTESIAN_POINT('',(10.,-3.75,20.));
#706=CARTESIAN_POINT('',(-35.,-10.,20.));
#707=CARTESIAN_POINT('',(-35.,-5.,20.));
#708=CARTESIAN_POINT('',(10.,-10.,20.));
#709=CARTESIAN_POINT('Origin',(10.,-5.,15.));
#710=CARTESIAN_POINT('',(10.,-10.,15.));
#711=CARTESIAN_POINT('',(10.,-1.25,15.));
#712=CARTESIAN_POINT('',(-35.,-10.,15.));
#713=CARTESIAN_POINT('',(10.,-10.,15.));
#714=CARTESIAN_POINT('',(-35.,-10.,15.));
#715=CARTESIAN_POINT('Origin',(-35.,-7.5,17.5));
#716=CARTESIAN_POINT('',(-35.,-10.,20.));
#717=CARTESIAN_POINT('Origin',(10.,-5.,35.));
#718=CARTESIAN_POINT('',(10.,-5.,30.));
#719=CARTESIAN_POINT('',(10.,-5.,35.));
#720=CARTESIAN_POINT('',(10.,-5.,22.5));
#721=CARTESIAN_POINT('',(-35.,-5.,30.));
#722=CARTESIAN_POINT('',(10.,-5.,30.));
#723=CARTESIAN_POINT('',(-35.,-5.,35.));
#724=CARTESIAN_POINT('',(-35.,-5.,30.));
#725=CARTESIAN_POINT('',(10.,-5.,35.));
#726=CARTESIAN_POINT('Origin',(10.,-5.,30.));
#727=CARTESIAN_POINT('',(10.,-10.,30.));
#728=CARTESIAN_POINT('',(10.,-1.25,30.));
#729=CARTESIAN_POINT('',(-35.,-10.,30.));
#730=CARTESIAN_POINT('',(10.,-10.,30.));
#731=CARTESIAN_POINT('',(-35.,-10.,30.));
#732=CARTESIAN_POINT('Origin',(-35.,-7.5,32.5));
#733=CARTESIAN_POINT('',(-35.,-10.,35.));
#734=CARTESIAN_POINT('',(-35.,-10.,35.));
#735=CARTESIAN_POINT('',(-35.,-5.,35.));
#736=CARTESIAN_POINT('Origin',(10.,2.5,10.));
#737=CARTESIAN_POINT('',(10.,-10.,35.));
#738=CARTESIAN_POINT('',(10.,5.,35.));
#739=CARTESIAN_POINT('',(10.,0.,35.));
#740=CARTESIAN_POINT('',(10.,5.,3.));
#741=CARTESIAN_POINT('',(10.,5.,35.));
#742=CARTESIAN_POINT('',(10.,0.,3.));
#743=CARTESIAN_POINT('',(10.,13.75,3.));
#744=CARTESIAN_POINT('',(10.,0.,0.));
#745=CARTESIAN_POINT('',(10.,0.,17.5));
#746=CARTESIAN_POINT('',(10.,5.,0.));
#747=CARTESIAN_POINT('',(10.,13.75,0.));
#748=CARTESIAN_POINT('',(10.,5.,-15.));
#749=CARTESIAN_POINT('',(10.,5.,35.));
#750=CARTESIAN_POINT('',(10.,-5.,-15.));
#751=CARTESIAN_POINT('',(10.,5.,-15.));
#752=CARTESIAN_POINT('',(10.,-5.,-10.));
#753=CARTESIAN_POINT('',(10.,-5.,0.));
#754=CARTESIAN_POINT('',(10.,-10.,-10.));
#755=CARTESIAN_POINT('',(10.,-3.75,-10.));
#756=CARTESIAN_POINT('',(10.,-10.,0.));
#757=CARTESIAN_POINT('',(10.,-10.,35.));
#758=CARTESIAN_POINT('',(10.,-5.,0.));
#759=CARTESIAN_POINT('',(10.,-1.25,0.));
#760=CARTESIAN_POINT('',(10.,-5.,5.));
#761=CARTESIAN_POINT('',(10.,-5.,7.5));
#762=CARTESIAN_POINT('',(10.,-10.,5.));
#763=CARTESIAN_POINT('',(10.,-3.75,5.));
#764=CARTESIAN_POINT('',(10.,-10.,35.));
#765=CARTESIAN_POINT('Origin',(10.,-5.,5.));
#766=CARTESIAN_POINT('',(-35.,-5.,0.));
#767=CARTESIAN_POINT('',(10.,-5.,0.));
#768=CARTESIAN_POINT('',(-35.,-5.,5.));
#769=CARTESIAN_POINT('',(-35.,-5.,0.));
#770=CARTESIAN_POINT('',(10.,-5.,5.));
#771=CARTESIAN_POINT('Origin',(10.,-10.,5.));
#772=CARTESIAN_POINT('',(-35.,-10.,5.));
#773=CARTESIAN_POINT('',(-35.,-5.,5.));
#774=CARTESIAN_POINT('',(10.,-10.,5.));
#775=CARTESIAN_POINT('Origin',(10.,-5.,0.));
#776=CARTESIAN_POINT('',(-35.,-10.,0.));
#777=CARTESIAN_POINT('',(10.,-10.,0.));
#778=CARTESIAN_POINT('',(-35.,-10.,0.));
#779=CARTESIAN_POINT('Origin',(-35.,-7.5,2.5));
#780=CARTESIAN_POINT('',(-35.,-10.,5.));
#781=CARTESIAN_POINT('Origin',(10.,-5.,-10.));
#782=CARTESIAN_POINT('',(-35.,-5.,-15.));
#783=CARTESIAN_POINT('',(10.,-5.,-15.));
#784=CARTESIAN_POINT('',(-35.,-5.,-10.));
#785=CARTESIAN_POINT('',(-35.,-5.,-15.));
#786=CARTESIAN_POINT('',(10.,-5.,-10.));
#787=CARTESIAN_POINT('Origin',(10.,-10.,-10.));
#788=CARTESIAN_POINT('',(-35.,-10.,-10.));
#789=CARTESIAN_POINT('',(-35.,-5.,-10.));
#790=CARTESIAN_POINT('',(10.,-10.,-10.));
#791=CARTESIAN_POINT('Origin',(-35.,-7.5,-12.5));
#792=CARTESIAN_POINT('',(-35.,-10.,-15.));
#793=CARTESIAN_POINT('',(-35.,-10.,-15.));
#794=CARTESIAN_POINT('',(-35.,-10.,-10.));
#795=CARTESIAN_POINT('Origin',(12.5,-10.,10.));
#796=CARTESIAN_POINT('',(15.,-10.,-15.));
#797=CARTESIAN_POINT('',(10.,-10.,-15.));
#798=CARTESIAN_POINT('',(15.,-10.,35.));
#799=CARTESIAN_POINT('',(15.,-10.,-15.));
#800=CARTESIAN_POINT('',(15.,-10.,35.));
#801=CARTESIAN_POINT('Origin',(0.,0.,0.));
#802=CARTESIAN_POINT('',(0.,0.,3.));
#803=CARTESIAN_POINT('',(0.,0.,3.));
#804=CARTESIAN_POINT('',(0.,0.,0.));
#805=CARTESIAN_POINT('',(0.,0.,0.));
#806=CARTESIAN_POINT('',(0.,0.,0.));
#807=CARTESIAN_POINT('Origin',(15.,5.,35.));
#808=CARTESIAN_POINT('',(15.,5.,3.));
#809=CARTESIAN_POINT('',(11.25,5.,3.));
#810=CARTESIAN_POINT('',(15.,5.,35.));
#811=CARTESIAN_POINT('',(15.,5.,35.));
#812=CARTESIAN_POINT('',(15.,5.,35.));
#813=CARTESIAN_POINT('Origin',(15.,5.,35.));
#814=CARTESIAN_POINT('',(15.,5.,0.));
#815=CARTESIAN_POINT('',(11.25,5.,0.));
#816=CARTESIAN_POINT('',(15.,5.,-15.));
#817=CARTESIAN_POINT('',(15.,5.,35.));
#818=CARTESIAN_POINT('',(15.,5.,-15.));
#819=CARTESIAN_POINT('Origin',(15.,5.,-15.));
#820=CARTESIAN_POINT('',(15.,5.,-15.));
#821=CARTESIAN_POINT('Origin',(15.,0.,35.));
#822=CARTESIAN_POINT('',(15.,0.,35.));
#823=CARTESIAN_POINT('Origin',(7.5,25.,3.));
#824=CARTESIAN_POINT('',(15.,50.,3.));
#825=CARTESIAN_POINT('',(15.,0.,3.));
#826=CARTESIAN_POINT('',(0.,50.,3.));
#827=CARTESIAN_POINT('',(15.,50.,3.));
#828=CARTESIAN_POINT('',(0.,50.,3.));
#829=CARTESIAN_POINT('Origin',(15.,50.,0.));
#830=CARTESIAN_POINT('',(15.,50.,0.));
#831=CARTESIAN_POINT('',(0.,50.,0.));
#832=CARTESIAN_POINT('',(15.,50.,0.));
#833=CARTESIAN_POINT('',(0.,50.,0.));
#834=CARTESIAN_POINT('',(15.,50.,0.));
#835=CARTESIAN_POINT('Origin',(15.,0.,0.));
#836=CARTESIAN_POINT('',(15.,0.,0.));
#837=CARTESIAN_POINT('Origin',(0.,50.,0.));
#838=CARTESIAN_POINT('',(0.,50.,0.));
#839=CARTESIAN_POINT('Origin',(7.5,25.,0.));
#840=UNCERTAINTY_MEASURE_WITH_UNIT(LENGTH_MEASURE(0.01),#844,
'DISTANCE_ACCURACY_VALUE',
'Maximum model space distance between geometric entities at asserted c
onnectivities');
#841=UNCERTAINTY_MEASURE_WITH_UNIT(LENGTH_MEASURE(0.01),#844,
'DISTANCE_ACCURACY_VALUE',
'Maximum model space distance between geometric entities at asserted c
onnectivities');
#842=(
GEOMETRIC_REPRESENTATION_CONTEXT(3)
GLOBAL_UNCERTAINTY_ASSIGNED_CONTEXT((#840))
GLOBAL_UNIT_ASSIGNED_CONTEXT((#844,#846,#847))
REPRESENTATION_CONTEXT('','3D')
);
#843=(
GEOMETRIC_REPRESENTATION_CONTEXT(3)
GLOBAL_UNCERTAINTY_ASSIGNED_CONTEXT((#841))
GLOBAL_UNIT_ASSIGNED_CONTEXT((#844,#846,#847))
REPRESENTATION_CONTEXT('','3D')
);
#844=(
LENGTH_UNIT()
NAMED_UNIT(*)
SI_UNIT(.MILLI.,.METRE.)
);
#845=(
LENGTH_UNIT()
NAMED_UNIT(*)
SI_UNIT($,.METRE.)
);
#846=(
NAMED_UNIT(*)
PLANE_ANGLE_UNIT()
SI_UNIT($,.RADIAN.)
);
#847=(
NAMED_UNIT(*)
SI_UNIT($,.STERADIAN.)
SOLID_ANGLE_UNIT()
);
#848=SHAPE_DEFINITION_REPRESENTATION(#849,#850);
#849=PRODUCT_DEFINITION_SHAPE('',$,#852);
#850=SHAPE_REPRESENTATION('',(#540),#842);
#851=PRODUCT_DEFINITION_CONTEXT('part definition',#856,'design');
#852=PRODUCT_DEFINITION('gripper russia','gripper russia v1',#853,#851);
#853=PRODUCT_DEFINITION_FORMATION('',$,#858);
#854=PRODUCT_RELATED_PRODUCT_CATEGORY('gripper russia v1',
'gripper russia v1',(#858));
#855=APPLICATION_PROTOCOL_DEFINITION('international standard',
'automotive_design',2009,#856);
#856=APPLICATION_CONTEXT(
'Core Data for Automotive Mechanical Design Process');
#857=PRODUCT_CONTEXT('part definition',#856,'mechanical');
#858=PRODUCT('gripper russia','gripper russia v1',$,(#857));
#859=PRESENTATION_STYLE_ASSIGNMENT((#860));
#860=SURFACE_STYLE_USAGE(.BOTH.,#861);
#861=SURFACE_SIDE_STYLE('',(#862));
#862=SURFACE_STYLE_FILL_AREA(#863);
#863=FILL_AREA_STYLE('Steel - Satin',(#864));
#864=FILL_AREA_STYLE_COLOUR('Steel - Satin',#865);
#865=COLOUR_RGB('Steel - Satin',0.627450980392157,0.627450980392157,0.627450980392157);
ENDSEC;
END-ISO-10303-21;
